<?xml version="1.0" standalone="no"?><svg xmlns="http://www.w3.org/2000/svg" viewBox="0 0 1440 320"><path fill="#ffffff" fill-opacity="1" d="M0,288L40,282.7C80,277,160,267,240,229.3C320,192,400,128,480,122.7C560,117,640,171,720,186.7C800,203,880,181,960,160C1040,139,1120,117,1200,133.3C1280,149,1360,203,1400,229.3L1440,256L1440,320L1400,320C1360,320,1280,320,1200,320C1120,320,1040,320,960,320C880,320,800,320,720,320C640,320,560,320,480,320C400,320,320,320,240,320C160,320,80,320,40,320L0,320Z"></path></svg>